# xmcd
#
# Track frame offsets:
#	150
#	18752
#	40287
#
# Disc length: 924 seconds
#
# Revision: 0
# Processed by: cddbd v1.4PL0 Copyright (c) Steve Scherf et al.
# Submitted via: EasyCDDAExtractor 4.6.9.1
#
DISCID=18039a03
DTITLE=Walter Trout Band - Tremble
DYEAR=1900
DGENRE=
TTITLE0=Tremble (Edited Version)
TTITLE1=Ain't Nobody Better
TTITLE2=Head Hung Down
EXTD=
EXTT0=
EXTT1=
EXTT2=
PLAYORDER=
